<svg width="509" height="169" viewBox="0 0 509 169" fill="none" xmlns="http://www.w3.org/2000/svg">
<path d="M191.516 101H176.797V32.75H191.516V101ZM217.531 101H203.375V50.2812H216.688L217.156 55.8125C218.812 53.7812 220.844 52.2031 223.25 51.0781C225.688 49.9219 228.469 49.3438 231.594 49.3438C234.594 49.3438 237.25 49.9531 239.562 51.1719C241.875 52.3906 243.672 54.3281 244.953 56.9844C246.578 54.6094 248.641 52.75 251.141 51.4062C253.672 50.0312 256.641 49.3438 260.047 49.3438C264.922 49.3438 268.844 50.7969 271.812 53.7031C274.781 56.6094 276.266 61.6406 276.266 68.7969V101H262.016V68.75C262.016 65.5 261.375 63.375 260.094 62.375C258.812 61.3438 257.047 60.8281 254.797 60.8281C252.859 60.8281 251.234 61.2969 249.922 62.2344C248.609 63.1719 247.594 64.4375 246.875 66.0312C246.875 66.4062 246.875 66.7812 246.875 67.1562V101H232.719V68.8906C232.719 65.6406 232.062 63.4844 230.75 62.4219C229.469 61.3594 227.688 60.8281 225.406 60.8281C223.594 60.8281 222.031 61.2188 220.719 62C219.406 62.7812 218.344 63.8594 217.531 65.2344V101ZM313.578 67.2031C313.578 64.9219 313.016 63.1094 311.891 61.7656C310.766 60.4219 308.969 59.75 306.5 59.75C304.344 59.75 302.672 60.2656 301.484 61.2969C300.297 62.3281 299.703 63.7656 299.703 65.6094H285.547C285.547 62.6094 286.438 59.8906 288.219 57.4531C290 54.9844 292.516 53.0156 295.766 51.5469C299.016 50.0781 302.844 49.3438 307.25 49.3438C311.188 49.3438 314.703 50.0156 317.797 51.3594C320.891 52.6719 323.328 54.6562 325.109 57.3125C326.891 59.9688 327.781 63.2969 327.781 67.2969V88.4844C327.781 91.4844 327.953 93.8594 328.297 95.6094C328.672 97.3594 329.188 98.8906 329.844 100.203V101H315.594C315.031 99.8125 314.578 98.3281 314.234 96.5469C312.922 98.0469 311.234 99.3281 309.172 100.391C307.141 101.422 304.625 101.938 301.625 101.938C298.406 101.938 295.484 101.297 292.859 100.016C290.266 98.7031 288.203 96.9062 286.672 94.625C285.141 92.3125 284.375 89.6719 284.375 86.7031C284.375 81.3906 286.344 77.2812 290.281 74.375C294.219 71.4375 300.078 69.9688 307.859 69.9688H313.578V67.2031ZM304.766 91.2031C306.953 91.2031 308.797 90.7344 310.297 89.7969C311.828 88.8281 312.922 87.7656 313.578 86.6094V78.125H308.281C304.844 78.125 302.359 78.875 300.828 80.375C299.297 81.8438 298.531 83.625 298.531 85.7188C298.531 87.3125 299.094 88.625 300.219 89.6562C301.344 90.6875 302.859 91.2031 304.766 91.2031ZM337.625 37.2031C337.625 35.1094 338.328 33.375 339.734 32C341.172 30.625 343.094 29.9375 345.5 29.9375C347.906 29.9375 349.828 30.625 351.266 32C352.703 33.375 353.422 35.1094 353.422 37.2031C353.422 39.3281 352.703 41.0781 351.266 42.4531C349.828 43.7969 347.906 44.4688 345.5 44.4688C343.094 44.4688 341.172 43.7969 339.734 42.4531C338.328 41.0781 337.625 39.3281 337.625 37.2031ZM352.906 50.2812V103.484C352.906 109.297 351.344 113.75 348.219 116.844C345.125 119.938 340.781 121.484 335.188 121.484C334 121.484 332.844 121.422 331.719 121.297C330.562 121.172 329.406 120.969 328.25 120.688L328.203 109.484C328.953 109.609 329.688 109.703 330.406 109.766C331.094 109.859 331.812 109.906 332.562 109.906C336.656 109.906 338.703 107.766 338.703 103.484V50.2812H352.906ZM362.984 37.2031C362.984 35.1094 363.703 33.375 365.141 32C366.578 30.625 368.5 29.9375 370.906 29.9375C373.312 29.9375 375.219 30.625 376.625 32C378.062 33.375 378.781 35.1094 378.781 37.2031C378.781 39.3281 378.062 41.0781 376.625 42.4531C375.219 43.7969 373.312 44.4688 370.906 44.4688C368.5 44.4688 366.578 43.7969 365.141 42.4531C363.703 41.0781 362.984 39.3281 362.984 37.2031ZM378.031 101H363.828V50.2812H378.031V101ZM402.734 101H388.578V50.2812H401.891L402.359 56.0469C405.953 51.5781 410.781 49.3438 416.844 49.3438C420.031 49.3438 422.828 49.9688 425.234 51.2188C427.641 52.4375 429.516 54.4688 430.859 57.3125C432.203 60.1562 432.875 64 432.875 68.8438V101H418.672V68.75C418.672 65.625 418 63.5312 416.656 62.4688C415.312 61.375 413.375 60.8281 410.844 60.8281C408.969 60.8281 407.359 61.2188 406.016 62C404.672 62.7812 403.578 63.8594 402.734 65.2344V101ZM466.484 101.938C461.141 101.938 456.562 100.828 452.75 98.6094C448.969 96.3906 446.062 93.4219 444.031 89.7031C442.031 85.9844 441.031 81.875 441.031 77.375V75.5469C441.031 70.4844 441.984 65.9844 443.891 62.0469C445.828 58.1094 448.578 55.0156 452.141 52.7656C455.703 50.4844 459.953 49.3438 464.891 49.3438C472.234 49.3438 477.828 51.625 481.672 56.1875C485.516 60.7188 487.438 66.75 487.438 74.2812V80.2812H455.422C455.922 83.375 457.203 85.8594 459.266 87.7344C461.359 89.5781 464.062 90.5 467.375 90.5C469.781 90.5 472.016 90.0625 474.078 89.1875C476.172 88.2812 477.969 86.875 479.469 84.9688L486.312 92.7969C484.719 95.0781 482.25 97.1719 478.906 99.0781C475.562 100.984 471.422 101.938 466.484 101.938ZM464.797 60.7344C462.016 60.7344 459.891 61.6719 458.422 63.5469C456.953 65.3906 455.984 67.7969 455.516 70.7656H473.516V69.6406C473.484 67.0469 472.766 64.9219 471.359 63.2656C469.984 61.5781 467.797 60.7344 464.797 60.7344Z" fill="black"/>
<circle cx="69" cy="77" r="69" fill="url(#paint0_linear)"/>
<path d="M70.173 63.1823C74.1461 63.1823 77.367 59.9437 77.367 55.9487C77.367 51.9537 74.1461 48.7151 70.173 48.7151C66.1999 48.7151 62.979 51.9537 62.979 55.9487C62.979 59.9437 66.1999 63.1823 70.173 63.1823Z" fill="white" fill-opacity="0.75"/>
<path d="M31.042 80.1704C33.8112 80.1704 36.056 77.9132 36.056 75.1288C36.056 72.3444 33.8112 70.0872 31.042 70.0872C28.2729 70.0872 26.028 72.3444 26.028 75.1288C26.028 77.9132 28.2729 80.1704 31.042 80.1704Z" fill="white" fill-opacity="0.46"/>
<path d="M52.733 92.3359C55.5022 92.3359 57.747 90.0787 57.747 87.2943C57.747 84.5099 55.5022 82.2527 52.733 82.2527C49.9638 82.2527 47.719 84.5099 47.719 87.2943C47.719 90.0787 49.9638 92.3359 52.733 92.3359Z" fill="#DBCFFB"/>
<path d="M69.41 100.885C71.7578 100.885 73.661 98.971 73.661 96.6103C73.661 94.2497 71.7578 92.3359 69.41 92.3359C67.0622 92.3359 65.159 94.2497 65.159 96.6103C65.159 98.971 67.0622 100.885 69.41 100.885Z" fill="#BFAAF7"/>
<path d="M50.444 113.708C52.25 113.708 53.714 112.236 53.714 110.42C53.714 108.604 52.25 107.132 50.444 107.132C48.638 107.132 47.174 108.604 47.174 110.42C47.174 112.236 48.638 113.708 50.444 113.708Z" fill="white" fill-opacity="0.87"/>
<path d="M68.974 118.202C70.479 118.202 71.699 116.975 71.699 115.462C71.699 113.948 70.479 112.722 68.974 112.722C67.469 112.722 66.249 113.948 66.249 115.462C66.249 116.975 67.469 118.202 68.974 118.202Z" fill="white" fill-opacity="0.11"/>
<path d="M35.184 100.665C37.5318 100.665 39.435 98.7518 39.435 96.3911C39.435 94.0304 37.5318 92.1167 35.184 92.1167C32.8363 92.1167 30.933 94.0304 30.933 96.3911C30.933 98.7518 32.8363 100.665 35.184 100.665Z" fill="#AC8EFB"/>
<path d="M35.947 64.936C39.9201 64.936 43.141 61.6974 43.141 57.7024C43.141 53.7073 39.9201 50.4688 35.947 50.4688C31.9739 50.4688 28.753 53.7073 28.753 57.7024C28.753 61.6974 31.9739 64.936 35.947 64.936Z" fill="#B299F8" fill-opacity="0.47"/>
<path d="M103.091 64.936C107.064 64.936 110.285 61.6974 110.285 57.7024C110.285 53.7073 107.064 50.4688 103.091 50.4688C99.1179 50.4688 95.897 53.7073 95.897 57.7024C95.897 61.6974 99.1179 64.936 103.091 64.936Z" fill="white" fill-opacity="0.36"/>
<path d="M50.88 49.4823C54.8532 49.4823 58.074 46.2437 58.074 42.2487C58.074 38.2537 54.8532 35.0151 50.88 35.0151C46.9069 35.0151 43.686 38.2537 43.686 42.2487C43.686 46.2437 46.9069 49.4823 50.88 49.4823Z" fill="white" fill-opacity="0.57"/>
<path d="M88.921 49.4823C92.8941 49.4823 96.115 46.2437 96.115 42.2487C96.115 38.2537 92.8941 35.0151 88.921 35.0151C84.9479 35.0151 81.727 38.2537 81.727 42.2487C81.727 46.2437 84.9479 49.4823 88.921 49.4823Z" fill="#BFAAF7"/>
<path d="M86.632 73.9233C90.6051 73.9233 93.826 70.6847 93.826 66.6897C93.826 62.6946 90.6051 59.4561 86.632 59.4561C82.6589 59.4561 79.438 62.6946 79.438 66.6897C79.438 70.6847 82.6589 73.9233 86.632 73.9233Z" fill="white"/>
<path d="M86.632 94.528C90.6051 94.528 93.826 91.2894 93.826 87.2944C93.826 83.2994 90.6051 80.0608 86.632 80.0608C82.6589 80.0608 79.438 83.2994 79.438 87.2944C79.438 91.2894 82.6589 94.528 86.632 94.528Z" fill="white" fill-opacity="0.78"/>
<path d="M107.778 84.5544C111.751 84.5544 114.972 81.3158 114.972 77.3208C114.972 73.3257 111.751 70.0872 107.778 70.0872C103.805 70.0872 100.584 73.3257 100.584 77.3208C100.584 81.3158 103.805 84.5544 107.778 84.5544Z" fill="#D4C5FB"/>
<path d="M103.091 103.296C107.064 103.296 110.285 100.057 110.285 96.0625C110.285 92.0675 107.064 88.8289 103.091 88.8289C99.1179 88.8289 95.897 92.0675 95.897 96.0625C95.897 100.057 99.1179 103.296 103.091 103.296Z" fill="#D4C5FB"/>
<path d="M88.921 117.653C92.8941 117.653 96.115 114.415 96.115 110.42C96.115 106.425 92.8941 103.186 88.921 103.186C84.9479 103.186 81.727 106.425 81.727 110.42C81.727 114.415 84.9479 117.653 88.921 117.653Z" fill="white"/>
<path d="M52.733 73.9233C56.7061 73.9233 59.927 70.6847 59.927 66.6897C59.927 62.6946 56.7061 59.4561 52.733 59.4561C48.7599 59.4561 45.539 62.6946 45.539 66.6897C45.539 70.6847 48.7599 73.9233 52.733 73.9233Z" fill="white" fill-opacity="0.98"/>
<path d="M70.173 44.0024C74.1461 44.0024 77.367 40.7638 77.367 36.7688C77.367 32.7737 74.1461 29.5352 70.173 29.5352C66.1999 29.5352 62.979 32.7737 62.979 36.7688C62.979 40.7638 66.1999 44.0024 70.173 44.0024Z" fill="white"/>
<path d="M70.173 82.3625C74.1461 82.3625 77.367 79.1239 77.367 75.1289C77.367 71.1339 74.1461 67.8953 70.173 67.8953C66.1999 67.8953 62.979 71.1339 62.979 75.1289C62.979 79.1239 66.1999 82.3625 70.173 82.3625Z" fill="white"/>
<path d="M374.125 140.375C374.125 139.297 373.898 138.383 373.445 137.633C372.992 136.883 372.18 136.203 371.008 135.594C369.836 134.984 368.172 134.367 366.016 133.742C362.656 132.773 359.977 131.516 357.977 129.969C355.977 128.422 354.977 126.328 354.977 123.688C354.977 121.906 355.453 120.32 356.406 118.93C357.375 117.523 358.727 116.422 360.461 115.625C362.195 114.812 364.227 114.406 366.555 114.406C369.133 114.406 371.32 114.898 373.117 115.883C374.914 116.852 376.281 118.125 377.219 119.703C378.156 121.266 378.625 122.938 378.625 124.719H374.055C374.055 122.797 373.445 121.211 372.227 119.961C371.008 118.711 369.117 118.086 366.555 118.086C364.164 118.086 362.398 118.617 361.258 119.68C360.117 120.727 359.547 122.039 359.547 123.617C359.547 125.055 360.172 126.258 361.422 127.227C362.672 128.195 364.695 129.07 367.492 129.852C371.367 130.945 374.203 132.305 376 133.93C377.797 135.539 378.695 137.672 378.695 140.328C378.695 142.172 378.203 143.781 377.219 145.156C376.234 146.531 374.852 147.594 373.07 148.344C371.289 149.094 369.195 149.469 366.789 149.469C365.211 149.469 363.656 149.25 362.125 148.812C360.609 148.375 359.227 147.719 357.977 146.844C356.742 145.969 355.75 144.891 355 143.609C354.266 142.312 353.898 140.812 353.898 139.109H358.445C358.445 140.672 358.836 141.945 359.617 142.93C360.398 143.914 361.422 144.641 362.688 145.109C363.969 145.578 365.336 145.812 366.789 145.812C369.148 145.812 370.961 145.32 372.227 144.336C373.492 143.352 374.125 142.031 374.125 140.375ZM394.445 126.945H389.711V142.719C389.711 144.031 389.992 144.867 390.555 145.227C391.133 145.586 391.781 145.766 392.5 145.766C392.859 145.766 393.234 145.734 393.625 145.672C394.031 145.609 394.328 145.555 394.516 145.508L394.539 149C394.195 149.109 393.742 149.211 393.18 149.305C392.633 149.414 391.969 149.469 391.188 149.469C390.125 149.469 389.148 149.258 388.258 148.836C387.367 148.414 386.656 147.711 386.125 146.727C385.594 145.727 385.328 144.383 385.328 142.695V126.945H380.711V123.641H385.328V117.477H389.711V123.641H394.445V126.945ZM415 123.641H419.383V149H415.211L415.117 146.516C414.336 147.438 413.336 148.164 412.117 148.695C410.898 149.211 409.43 149.469 407.711 149.469C405.227 149.469 403.219 148.734 401.688 147.266C400.156 145.797 399.391 143.375 399.391 140V123.641H403.773V140.047C403.773 141.578 403.992 142.766 404.43 143.609C404.883 144.438 405.461 145.016 406.164 145.344C406.883 145.656 407.633 145.812 408.414 145.812C410.18 145.812 411.586 145.484 412.633 144.828C413.695 144.156 414.484 143.266 415 142.156V123.641ZM424.914 136.109C424.914 133.531 425.328 131.273 426.156 129.336C427 127.383 428.172 125.867 429.672 124.789C431.172 123.711 432.93 123.172 434.945 123.172C436.477 123.172 437.82 123.43 438.977 123.945C440.133 124.461 441.125 125.195 441.953 126.148V113H446.336V149H442.328L442.117 146.305C441.289 147.32 440.273 148.102 439.07 148.648C437.883 149.195 436.492 149.469 434.898 149.469C432.914 149.469 431.172 148.914 429.672 147.805C428.172 146.68 427 145.148 426.156 143.211C425.328 141.273 424.914 139.07 424.914 136.602V136.109ZM429.297 136.602C429.297 138.289 429.523 139.836 429.977 141.242C430.445 142.633 431.172 143.742 432.156 144.57C433.141 145.398 434.414 145.812 435.977 145.812C437.492 145.812 438.719 145.469 439.656 144.781C440.609 144.094 441.375 143.219 441.953 142.156V130.367C441.391 129.336 440.633 128.484 439.68 127.812C438.727 127.141 437.508 126.805 436.023 126.805C434.445 126.805 433.156 127.227 432.156 128.07C431.172 128.914 430.445 130.047 429.977 131.469C429.523 132.875 429.297 134.422 429.297 136.109V136.602ZM453.109 116.891C453.109 116.203 453.32 115.617 453.742 115.133C454.18 114.648 454.82 114.406 455.664 114.406C456.508 114.406 457.148 114.648 457.586 115.133C458.039 115.617 458.266 116.203 458.266 116.891C458.266 117.562 458.039 118.141 457.586 118.625C457.148 119.094 456.508 119.328 455.664 119.328C454.82 119.328 454.18 119.094 453.742 118.625C453.32 118.141 453.109 117.562 453.109 116.891ZM457.82 149H453.438V123.641H457.82V149ZM463.609 136.062C463.609 133.609 464.078 131.414 465.016 129.477C465.953 127.539 467.281 126.008 469 124.883C470.719 123.742 472.758 123.172 475.117 123.172C477.508 123.172 479.57 123.742 481.305 124.883C483.039 126.008 484.367 127.539 485.289 129.477C486.227 131.414 486.695 133.609 486.695 136.062V136.602C486.695 139.039 486.227 141.234 485.289 143.188C484.367 145.125 483.039 146.656 481.305 147.781C479.586 148.906 477.539 149.469 475.164 149.469C472.789 149.469 470.734 148.906 469 147.781C467.281 146.656 465.953 145.125 465.016 143.188C464.078 141.234 463.609 139.039 463.609 136.602V136.062ZM467.992 136.602C467.992 138.273 468.258 139.82 468.789 141.242C469.32 142.664 470.109 143.805 471.156 144.664C472.219 145.523 473.555 145.953 475.164 145.953C476.758 145.953 478.078 145.523 479.125 144.664C480.188 143.805 480.984 142.664 481.516 141.242C482.047 139.82 482.312 138.273 482.312 136.602V136.062C482.312 134.391 482.047 132.844 481.516 131.422C480.984 130 480.188 128.859 479.125 128C478.062 127.125 476.727 126.688 475.117 126.688C473.539 126.688 472.219 127.125 471.156 128C470.094 128.859 469.297 130 468.766 131.422C468.25 132.844 467.992 134.391 467.992 136.062V136.602Z" fill="black"/>
<defs>
<linearGradient id="paint0_linear" x1="116" y1="120" x2="29.5" y2="65.5" gradientUnits="userSpaceOnUse">
<stop stop-color="#6233E8"/>
<stop offset="1" stop-color="#8556FE"/>
</linearGradient>
</defs>
</svg>
